<?xml version="1.0" ?><!DOCTYPE svg  PUBLIC '-//W3C//DTD SVG 1.1//EN'  'http://www.w3.org/Graphics/SVG/1.1/DTD/svg11.dtd'><svg height="512px" style="enable-background:new 0 0 512 512;" version="1.1" viewBox="0 0 512 512" width="512px" xml:space="preserve" xmlns="http://www.w3.org/2000/svg" xmlns:xlink="http://www.w3.org/1999/xlink"><g id="_x31_02_x2C__Axe_x2C__hatchet_x2C__tool_x2C__cutter_x2C__viking"><g><path d="M333.371,378.4l-58.188-100.81l-14.787,25.599l50.793,88.011L333.371,378.4    z M138.647,92.375l22.212-12.832l-8.635-14.941l-22.182,12.829L138.647,92.375z M451.546,146.305l-78.628-45.387l-0.094-0.063    l-28.768-16.621l-0.093-0.031l-0.093-0.061l-13.049-7.52l-12.953,22.43l111.062,64.121c1.802,1.057,2.453,3.387,1.396,5.188    c-1.024,1.833-3.354,2.454-5.187,1.397l-111.063-64.121l-34.577,59.896c4.069,1.833,8.575,4.163,13.298,6.865l0.247,0.188    l0.218,0.093l0.218,0.124l0.403,0.248l0.218,0.125l0.218,0.154l0.652,0.373l0.218,0.125l2.36,1.43l0.218,0.154    c18.423,11.37,39.578,28.456,54.583,48.34c16.807,22.211,26.033,47.903,15.844,73.284c-0.65,1.585-1.367,3.2-2.174,4.784    l21.871,12.644c22.585-17.428,50.389-44.424,70.674-75.335c15.1-22.988,26.004-48.121,27.433-72.943L451.546,146.305z     M236.817,262.368l14.788-25.63L219.482,181.1c-2.05,1.273-4.162,2.578-6.275,3.977l-0.156,0.123h-0.03l-0.467,0.311l-0.156,0.094    l-0.497,0.342l-0.154,0.094l-0.188,0.124l-0.154,0.124l-0.156,0.094l-0.093,0.063l-0.062,0.03l-0.186,0.124l-0.156,0.125    l-0.154,0.092l-0.156,0.125l-0.186,0.094l-0.032,0.031l-0.125,0.093l-0.154,0.124l-0.156,0.094l-0.186,0.123l-0.154,0.094    l-0.156,0.124l-0.154,0.125l-0.188,0.093l-0.154,0.125l-0.186,0.123l-0.156,0.125l-0.125,0.063l-0.03,0.03l-0.188,0.124    l-0.155,0.125l-0.156,0.124l-0.186,0.093l-0.155,0.125l-0.063,0.03l-0.093,0.095l-0.186,0.123l-0.156,0.125l-0.186,0.124    l-0.155,0.093l-0.156,0.124l0,0l-0.186,0.124l-0.156,0.125l-0.186,0.124l-0.154,0.124l-0.156,0.125l-0.125,0.062l-0.062,0.032    l-0.156,0.123l-0.186,0.125l-0.154,0.124l-0.156,0.124l-0.186,0.125l-0.032,0.03l-0.125,0.094l-0.186,0.124l-0.156,0.124    l-0.155,0.124l-0.186,0.125l-0.156,0.092v0.032l-0.186,0.124l-0.156,0.125l-0.186,0.124l-0.154,0.124l-0.186,0.124l-0.063,0.063    l-0.093,0.063l-0.156,0.124l-0.186,0.124l-0.154,0.124l-0.186,0.125l-0.156,0.154h-0.032l-0.154,0.125l-0.156,0.123l-0.154,0.125    l-0.188,0.125l-0.154,0.123l-0.125,0.094l-0.062,0.031l-0.156,0.155l-0.186,0.124l-0.156,0.124l-0.155,0.125l-0.186,0.124    l-0.063,0.063l-0.093,0.062l-0.186,0.155l-0.156,0.125l-0.186,0.123l-0.154,0.125l-0.156,0.125l-0.03,0.03l-0.156,0.124    l-0.186,0.124l-0.156,0.125L236.817,262.368z M292.518,181.1L178.598,378.4l22.213,12.8l51.849-89.813l0.032-0.031v-0.03    l0.093-0.156l60.858-105.407l-0.87-0.653l-0.154-0.123l-1.025-0.777l-0.156-0.154l-0.682-0.498l-0.156-0.125l-0.187-0.123    l-0.156-0.125l0,0l-0.187-0.154l-0.154-0.125l-0.188-0.124l-0.154-0.124l-0.156-0.124l-0.093-0.063l-0.093-0.063l-0.154-0.124    l-0.188-0.124l-0.155-0.124l-0.187-0.125l-0.312-0.248l-0.187-0.125l-0.154-0.124l-0.186-0.124l-0.156-0.124l-0.156-0.094    l-0.029-0.03l-0.156-0.125l-0.154-0.124l-0.187-0.124l-0.156-0.125l-0.187-0.123l-0.063-0.032l-0.094-0.093l-0.186-0.124    l-0.154-0.124l-0.156-0.094l-0.187-0.125l-0.156-0.124l0,0l-0.186-0.124l-0.154-0.124l-0.156-0.124l-0.187-0.125l-0.155-0.092    l-0.125-0.095l-0.062-0.03l-0.156-0.125l-0.154-0.123l-0.186-0.125l-0.156-0.094l-0.154-0.124l-0.063-0.03l-0.125-0.094    l-0.154-0.124l-0.186-0.093l-0.156-0.125l-0.154-0.125l-0.156-0.093l0,0l-0.343-0.248l-0.154-0.093l-0.186-0.125l-0.156-0.093    l-0.125-0.093l-0.029-0.031l-0.343-0.219l-0.156-0.123l-0.154-0.094l-0.156-0.124l-0.093-0.062l-0.062-0.031l-0.186-0.125    l-0.156-0.093l-0.154-0.124l-0.156-0.094l-0.187-0.125l-0.031-0.03l-0.125-0.062l-0.154-0.125l-0.156-0.094l-0.186-0.123    l-0.154-0.094l-0.156-0.124l0,0l-0.156-0.093l-0.187-0.125l-0.154-0.093l-0.156-0.094l-0.154-0.124l-0.124-0.063l-0.032-0.03    l-0.154-0.124l-0.188-0.094l-0.154-0.093l-0.156-0.124l-0.154-0.094l-0.093-0.063l-0.094-0.031l-0.156-0.123l-0.154-0.094    l-0.156-0.094l-0.154-0.123l-0.342-0.188l-0.156-0.123l-0.154-0.095l-0.156-0.093l-0.154-0.094l-0.156-0.092l-0.031-0.032    l-0.155-0.093l-0.156-0.094l-0.154-0.092l-0.156-0.125l-0.154-0.094l-0.093-0.062l-0.093-0.03l-0.156-0.095L293.948,182    l-0.156-0.123l-0.154-0.095l-0.156-0.093l-0.032-0.031l-0.122-0.063l-0.188-0.092l-0.154-0.094l-0.156-0.094l-0.154-0.123    l-0.124-0.063L292.518,181.1z M351.141,79.543l22.182,12.832l8.636-14.944l-22.181-12.829L351.141,79.543z M72.601,177.993    l-21.84,12.612l-3.79-6.586l21.81-12.613L72.601,177.993z M439.399,177.993c-1.834-1.026-2.455-3.387-1.398-5.188    c1.057-1.834,3.387-2.455,5.221-1.398l21.808,12.613c1.832,1.057,2.455,3.386,1.398,5.188c-1.057,1.834-3.387,2.455-5.221,1.398    L439.399,177.993z M239.83,447.399c-2.081,0-3.791-1.709-3.791-3.822c0-2.112,1.709-3.821,3.791-3.821h187.392    c2.081,0,3.79,1.709,3.79,3.821c0,2.113-1.709,3.822-3.79,3.822H239.83z M118.082,425.777c-2.081,0-3.791-1.709-3.791-3.79    c0-2.113,1.709-3.822,3.791-3.822h275.807c2.11,0,3.82,1.709,3.82,3.822c0,2.081-1.71,3.79-3.82,3.79H118.082z M181.177,76.623    l-32.589,18.796l-9.413,5.437l-0.093,0.063l-0.063,0.03L26.001,166.188c1.43,24.822,12.334,49.955,27.432,72.943    c20.287,30.911,48.09,57.907,70.676,75.335l21.87-12.644c-0.807-1.584-1.521-3.199-2.174-4.784    c-10.19-25.381-0.963-51.073,15.812-73.284c8.886-11.744,19.915-22.523,31.254-31.719l0.062-0.063l0.062-0.063l0.093-0.062    l0.063-0.063l0.031-0.032l0.186-0.123l0.218-0.188l0.589-0.465l0.032-0.031l1.056-0.838l0.218-0.188l0.218-0.155l0.651-0.497    l0.188-0.154c5.219-4.039,10.408-7.736,15.47-11.029l0.217-0.155l0.467-0.28l0.062-0.063l0.156-0.092l0.218-0.156l0.217-0.124    l0.216-0.155l0.156-0.094l0.062-0.03l0.249-0.155l0.218-0.125l0.217-0.154l0.186-0.125h0.032l0.218-0.155l0.217-0.124l0.218-0.155    l0.218-0.124l0.061-0.031l0.155-0.125l0.217-0.124l0.218-0.124l0.342-0.217l0.093-0.063l0.218-0.125l0.217-0.155l0.218-0.124    l0.218-0.124h0.031l0.186-0.124l0.218-0.156l0.217-0.123l0.218-0.125l0.062-0.031l0.156-0.094l0.216-0.123l1.461-0.871l0.03-0.03    l0.622-0.373l0.093-0.03l0.095-0.063l0.093-0.031c4.722-2.733,9.195-5.063,13.295-6.896l-34.577-59.896L86.86,169.76l-3.791-6.586    l111.062-64.121L181.177,76.623z" style="fill-rule:evenodd;clip-rule:evenodd;"/></g></g><g id="Layer_1"/></svg>